# xmcd
#
# Track frame offsets: 
#        150
#        13785
#        28231
#        40450
#        54528
#        66933
#        78909
#        90590
#        102812
#        117105
#        130007
#        140627
#        151517
#        161438
#        175180
#
# Disc length: 2460 seconds
#
# Revision: 6
# Processed by: cddbd v1.5.2PL0 Copyright (c) Steve Scherf et al.
# Submitted via: ExactAudioCopy v0.99pb5
#
DISCID=ba099a0f
DTITLE=Various Artist - Classic Country - TL 626-15 - 1970 - 1975 - CD 1
DYEAR=2001
DGENRE=Country
TTITLE0=Johnny Cash and June Carter Cash - If I were a carpenter
TTITLE1=Jerry Lee Lewis - Me and Bobby McGee
TTITLE2=Dolly Parton - The bargain store
TTITLE3=Glen Campbell - Country boy (you got your feet in L.A.)
TTITLE4=Tom T. Hall - The year that Clayton Delaney died
TTITLE5=Tammy Wynette - He loves me all the way
TTITLE6=Joe Stampley - Roll on Big Mama
TTITLE7=Conway Twitty - Linda on my mind
TTITLE8=Kendalls - Leaving on a jet plane
TTITLE9=Statler Brothers - I'll go to my grave loving you
TTITLE10=Charley Pride - I'm just me
TTITLE11=Tanya Tucker - Would you lay with me (in a field of stone)
TTITLE12=Mel Tillis - I ain't never
TTITLE13=George Jones - A good year for the roses
TTITLE14=Dottie West - Country sunshine
EXTD=YEAR: 2001
EXTT0=
EXTT1=
EXTT2=
EXTT3=
EXTT4=
EXTT5=
EXTT6=
EXTT7=
EXTT8=
EXTT9=
EXTT10=
EXTT11=
EXTT12=
EXTT13=
EXTT14=
PLAYORDER=
